<svg width="103" height="103" viewBox="0 0 103 103" fill="none" xmlns="http://www.w3.org/2000/svg">
<g clip-path="url(#clip0_38_61)">
<path d="M0 0H83C94.0457 0 103 8.9543 103 20V83C103 94.0457 94.0457 103 83 103H0V0Z" fill="#7C5DFA"/>
<mask id="mask0_38_61" style="mask-type:luminance" maskUnits="userSpaceOnUse" x="0" y="0" width="103" height="103">
<path d="M0 0H83C94.0457 0 103 8.9543 103 20V83C103 94.0457 94.0457 103 83 103H0V0Z" fill="white"/>
</mask>
<g mask="url(#mask0_38_61)">
<path d="M103 52H20C8.95431 52 0 60.9543 0 72V135C0 146.046 8.9543 155 20 155H103V52Z" fill="#9277FF"/>
</g>
<path fill-rule="evenodd" clip-rule="evenodd" d="M42.6942 33.2922L52 52L61.3058 33.2922C67.6645 36.6408 72 43.3141 72 51C72 62.0457 63.0457 71 52 71C40.9543 71 32 62.0457 32 51C32 43.3141 36.3355 36.6408 42.6942 33.2922Z" fill="white"/>
</g>
<defs>
<clipPath id="clip0_38_61">
<rect width="103" height="103" fill="white"/>
</clipPath>
</defs>
</svg>
